<?xml version="1.0" standalone="no"?>
<!DOCTYPE svg PUBLIC "-//W3C//DTD SVG 20010904//EN"
 "http://www.w3.org/TR/2001/REC-SVG-20010904/DTD/svg10.dtd">
<svg version="1.0" xmlns="http://www.w3.org/2000/svg"
 width="512.000000pt" height="512.000000pt" viewBox="0 0 512.000000 512.000000"
 preserveAspectRatio="xMidYMid meet">
<metadata>
Created by potrace 1.14, written by Peter Selinger 2001-2017
</metadata>
<g transform="translate(0.000000,512.000000) scale(0.100000,-0.100000)"
fill="#000000" stroke="none">
<path d="M2368 5075 c-1 -1 -30 -5 -63 -9 -294 -28 -611 -119 -879 -254 -640
-322 -1122 -911 -1306 -1597 -65 -240 -84 -395 -85 -665 0 -190 5 -273 26
-395 6 -33 12 -70 14 -83 2 -12 6 -30 9 -40 3 -9 7 -28 10 -42 41 -239 189
-582 361 -840 420 -630 1086 -1034 1846 -1118 132 -14 556 -6 611 12 7 3 31 7
53 10 71 10 109 17 150 28 22 5 47 11 55 13 47 9 235 67 275 84 11 5 36 15 55
22 74 27 243 110 337 165 333 196 617 466 841 801 142 212 276 518 339 776 17
71 53 277 59 339 10 99 11 447 1 533 -37 325 -126 617 -275 905 -185 358 -482
692 -817 919 -141 96 -267 165 -445 244 -145 64 -417 143 -560 162 -58 7 -126
18 -145 22 -23 5 -462 13 -467 8z"/>
</g>
</svg>
